<svg xmlns="http://www.w3.org/2000/svg" width="1200" height="630" viewBox="0 0 1200 630" role="img" aria-labelledby="title desc">
  <title id="title">Iron Canvas</title>
  <desc id="desc">Rust and WebAssembly geometry demo preview card.</desc>
  <defs>
    <linearGradient id="bg" x1="0" y1="0" x2="1" y2="1">
      <stop offset="0" stop-color="#07111f"/>
      <stop offset="0.52" stop-color="#0b1728"/>
      <stop offset="1" stop-color="#050b15"/>
    </linearGradient>
    <linearGradient id="accent" x1="0" y1="0" x2="1" y2="0">
      <stop offset="0" stop-color="#7cf0cf"/>
      <stop offset="1" stop-color="#32d7be"/>
    </linearGradient>
    <filter id="shadow" x="-20%" y="-20%" width="140%" height="140%">
      <feDropShadow dx="0" dy="24" stdDeviation="26" flood-color="#000000" flood-opacity="0.38"/>
    </filter>
  </defs>
  <rect width="1200" height="630" fill="url(#bg)"/>
  <circle cx="155" cy="115" r="220" fill="#32d7be" opacity="0.14"/>
  <circle cx="1010" cy="95" r="210" fill="#ffd279" opacity="0.12"/>
  <rect x="88" y="78" width="1024" height="474" rx="34" fill="rgba(14,24,42,0.92)" stroke="rgba(255,255,255,0.12)" filter="url(#shadow)"/>
  <rect x="136" y="134" width="318" height="318" rx="24" fill="#07111f" stroke="rgba(124,240,207,0.24)"/>
  <g stroke="rgba(255,255,255,0.08)" stroke-width="2">
    <path d="M176 174h238M176 214h238M176 254h238M176 294h238M176 334h238M176 374h238M176 414h238"/>
    <path d="M176 174v238M216 174v238M256 174v238M296 174v238M336 174v238M376 174v238M416 174v238"/>
  </g>
  <path d="M210 355L210 235L380 235L380 355Z" fill="none" stroke="url(#accent)" stroke-width="8" stroke-linejoin="round"/>
  <g fill="#f3f7ff">
    <circle cx="210" cy="355" r="8"/><circle cx="210" cy="235" r="8"/><circle cx="380" cy="235" r="8"/><circle cx="380" cy="355" r="8"/>
  </g>
  <text x="295" y="212" text-anchor="middle" font-family="Arial, sans-serif" font-size="24" font-weight="700" fill="#ffd279">TOP</text>
  <text x="520" y="190" font-family="Arial, sans-serif" font-size="28" font-weight="700" fill="#7cf0cf" letter-spacing="4">RUST + WEBASSEMBLY</text>
  <text x="520" y="265" font-family="Arial, sans-serif" font-size="72" font-weight="800" fill="#f3f7ff">Iron Canvas</text>
  <text x="520" y="326" font-family="Arial, sans-serif" font-size="30" fill="#9fb0cb">Geometry logic in Rust. Rendering in the browser.</text>
  <text x="520" y="410" font-family="Arial, sans-serif" font-size="25" fill="#ffd279">Hibob555556/IronCanvas</text>
</svg>
